<svg xmlns="http://www.w3.org/2000/svg" width="920" height="240" viewBox="0 0 920 240" fill="none" role="img" aria-labelledby="title desc">
  <title id="title">Relay logo</title>
  <desc id="desc">A cobalt wordmark paired with a handoff icon based on connected nodes.</desc>
  <defs>
    <linearGradient id="panel" x1="46" y1="52" x2="176" y2="188" gradientUnits="userSpaceOnUse">
      <stop stop-color="#FFFFFF"/>
      <stop offset="1" stop-color="#E9F0FB"/>
    </linearGradient>
  </defs>
  <rect x="36" y="52" width="136" height="136" rx="38" fill="url(#panel)"/>
  <rect x="36.75" y="52.75" width="134.5" height="134.5" rx="37.25" stroke="#466BB0" stroke-opacity="0.18" stroke-width="1.5"/>
  <path d="M72 82C81.5 75.333 92.167 72 104 72C115.833 72 126.5 75.333 136 82" stroke="#466BB0" stroke-opacity="0.26" stroke-width="6.5" stroke-linecap="round"/>
  <path d="M87 111L97 121" stroke="#466BB0" stroke-width="8.5" stroke-linecap="round"/>
  <path d="M111 129L120 120" stroke="#466BB0" stroke-width="8.5" stroke-linecap="round"/>
  <path d="M112 129L120 129" stroke="#466BB0" stroke-width="8.5" stroke-linecap="round"/>
  <path d="M137 124L145 116" stroke="#466BB0" stroke-width="8.5" stroke-linecap="round"/>
  <circle cx="82" cy="106" r="8" fill="#FFFFFF" stroke="#466BB0" stroke-width="6"/>
  <circle cx="104" cy="130" r="8" fill="#466BB0" fill-opacity="0.42"/>
  <circle cx="126" cy="110" r="8" fill="#466BB0"/>
  <path d="M80 151C88.333 158.333 96.333 162 104 162C111.667 162 119.667 158.333 128 151" stroke="#466BB0" stroke-opacity="0.36" stroke-width="7.5" stroke-linecap="round"/>
  <text x="214" y="118" fill="#121212" font-family="'Iowan Old Style', 'Palatino Linotype', Georgia, serif" font-size="66" letter-spacing="-1.8">Relay</text>
  <text x="218" y="155" fill="#466BB0" font-family="'Aptos', 'Segoe UI', 'Helvetica Neue', Arial, sans-serif" font-size="15" font-weight="700" letter-spacing="4.2">TEAM TASKS AND HANDOFFS</text>
</svg>
