<svg xmlns="http://www.w3.org/2000/svg" xmlns:xlink="http://www.w3.org/1999/xlink" width="302" zoomAndPan="magnify" viewBox="37 158 302 59" height="59" preserveAspectRatio="xMinYMin meet" version="1.0"><defs><g/><clipPath id="9c08fba6f5"><rect x="0" width="302" y="0" height="59"/></clipPath></defs><g transform="matrix(1, 0, 0, 1, 37, 158)"><g clip-path="url(#9c08fba6f5)"><g fill="#000000" fill-opacity="1"><g transform="translate(0.500002, 46.851049)"><g><path d="M 1.328125 -11.640625 L 1.328125 -11.6875 L 11.9375 -11.6875 L 11.9375 -11.640625 C 12.039062 -10.222656 12.453125 -9.132812 13.171875 -8.375 C 13.898438 -7.625 14.910156 -7.117188 16.203125 -6.859375 C 17.503906 -6.597656 19.03125 -6.46875 20.78125 -6.46875 C 23.632812 -6.46875 25.613281 -6.78125 26.71875 -7.40625 C 27.820312 -8.03125 28.375 -8.816406 28.375 -9.765625 C 28.375 -10.984375 27.847656 -11.851562 26.796875 -12.375 C 25.742188 -12.90625 23.953125 -13.351562 21.421875 -13.71875 L 14.65625 -14.65625 C 10.050781 -15.25 6.71875 -16.382812 4.65625 -18.0625 C 2.601562 -19.738281 1.578125 -22.070312 1.578125 -25.0625 C 1.578125 -27.070312 2.320312 -28.878906 3.8125 -30.484375 C 5.3125 -32.097656 7.421875 -33.375 10.140625 -34.3125 C 12.859375 -35.25 16.023438 -35.703125 19.640625 -35.671875 C 22.109375 -35.671875 24.425781 -35.429688 26.59375 -34.953125 C 28.769531 -34.484375 30.703125 -33.757812 32.390625 -32.78125 C 34.085938 -31.8125 35.425781 -30.578125 36.40625 -29.078125 C 37.394531 -27.585938 37.941406 -25.804688 38.046875 -23.734375 L 38.046875 -23.6875 L 27.390625 -23.6875 L 27.390625 -23.734375 C 27.359375 -25.078125 26.992188 -26.109375 26.296875 -26.828125 C 25.609375 -27.554688 24.660156 -28.050781 23.453125 -28.3125 C 22.253906 -28.582031 20.882812 -28.71875 19.34375 -28.71875 C 16.90625 -28.71875 15.085938 -28.421875 13.890625 -27.828125 C 12.691406 -27.234375 12.09375 -26.425781 12.09375 -25.40625 C 12.09375 -24.71875 12.320312 -24.144531 12.78125 -23.6875 C 13.238281 -23.226562 14.066406 -22.832031 15.265625 -22.5 C 16.472656 -22.164062 18.160156 -21.835938 20.328125 -21.515625 C 21.804688 -21.347656 23.1875 -21.179688 24.46875 -21.015625 C 25.757812 -20.859375 26.765625 -20.726562 27.484375 -20.625 C 35.117188 -19.632812 38.9375 -16.28125 38.9375 -10.5625 C 38.9375 -7.175781 37.394531 -4.476562 34.3125 -2.46875 C 31.238281 -0.457031 26.609375 0.546875 20.421875 0.546875 C 16.867188 0.546875 13.6875 0.148438 10.875 -0.640625 C 8.0625 -1.429688 5.816406 -2.710938 4.140625 -4.484375 C 2.460938 -6.265625 1.523438 -8.648438 1.328125 -11.640625 Z M 1.328125 -11.640625 "/></g></g></g><g fill="#000000" fill-opacity="1"><g transform="translate(40.960692, 46.851049)"><g><path d="M 39.46875 -25.703125 C 42.726562 -25.703125 45.242188 -24.765625 47.015625 -22.890625 C 48.796875 -21.015625 49.6875 -18.566406 49.6875 -15.546875 L 49.6875 0 L 39.96875 0 L 39.96875 -13.71875 C 39.96875 -15.851562 39.617188 -17.304688 38.921875 -18.078125 C 38.234375 -18.859375 37.164062 -19.25 35.71875 -19.25 C 34.007812 -19.25 32.757812 -18.671875 31.96875 -17.515625 C 31.1875 -16.367188 30.796875 -14.660156 30.796875 -12.390625 L 30.796875 0 L 21.5625 0 L 21.5625 -13.71875 C 21.5625 -15.851562 21.210938 -17.304688 20.515625 -18.078125 C 19.828125 -18.859375 18.757812 -19.25 17.3125 -19.25 C 15.601562 -19.25 14.351562 -18.671875 13.5625 -17.515625 C 12.78125 -16.367188 12.390625 -14.660156 12.390625 -12.390625 L 12.390625 0 L 2.671875 0 L 2.671875 -25.265625 L 12.046875 -25.265625 L 12.046875 -20.828125 C 12.703125 -22.273438 13.828125 -23.445312 15.421875 -24.34375 C 17.015625 -25.25 18.894531 -25.703125 21.0625 -25.703125 C 23.300781 -25.703125 25.148438 -25.238281 26.609375 -24.3125 C 28.078125 -23.394531 29.160156 -22.132812 29.859375 -20.53125 C 30.484375 -22.070312 31.675781 -23.316406 33.4375 -24.265625 C 35.195312 -25.222656 37.207031 -25.703125 39.46875 -25.703125 Z M 39.46875 -25.703125 "/></g></g></g><g fill="#000000" fill-opacity="1"><g transform="translate(92.967474, 46.851049)"><g><path d="M 2.671875 -28.671875 L 2.671875 -35.96875 L 12.4375 -35.96875 L 12.4375 -28.671875 Z M 2.671875 0 L 2.671875 -25.265625 L 12.4375 -25.265625 L 12.4375 0 Z M 2.671875 0 "/></g></g></g><g fill="#000000" fill-opacity="1"><g transform="translate(108.016892, 46.851049)"><g><path d="M 2.671875 0 L 2.671875 -35.125 L 12.484375 -35.125 L 12.484375 0 Z M 2.671875 0 "/></g></g></g><g fill="#000000" fill-opacity="1"><g transform="translate(123.115625, 46.851049)"><g><path d="M 33.0625 -12.1875 L 33.0625 -10.359375 L 11.109375 -10.359375 C 11.265625 -8.390625 11.8125 -7.023438 12.75 -6.265625 C 13.6875 -5.503906 15.160156 -5.125 17.171875 -5.125 C 18.953125 -5.125 20.34375 -5.347656 21.34375 -5.796875 C 22.34375 -6.242188 22.957031 -7.023438 23.1875 -8.140625 L 32.8125 -8.140625 C 32.445312 -6.203125 31.5 -4.585938 29.96875 -3.296875 C 28.445312 -2.015625 26.570312 -1.0625 24.34375 -0.4375 C 22.125 0.1875 19.75 0.5 17.21875 0.5 C 14.226562 0.5 11.523438 0.0390625 9.109375 -0.875 C 6.691406 -1.800781 4.773438 -3.203125 3.359375 -5.078125 C 1.941406 -6.953125 1.234375 -9.320312 1.234375 -12.1875 L 1.234375 -13.125 C 1.234375 -15.914062 1.957031 -18.238281 3.40625 -20.09375 C 4.851562 -21.957031 6.785156 -23.363281 9.203125 -24.3125 C 11.617188 -25.269531 14.273438 -25.75 17.171875 -25.75 C 20.390625 -25.75 23.179688 -25.222656 25.546875 -24.171875 C 27.921875 -23.117188 29.765625 -21.585938 31.078125 -19.578125 C 32.398438 -17.578125 33.0625 -15.113281 33.0625 -12.1875 Z M 23.34375 -14.90625 L 23.34375 -14.953125 C 23.238281 -16.691406 22.707031 -17.972656 21.75 -18.796875 C 20.800781 -19.617188 19.320312 -20.03125 17.3125 -20.03125 C 15.28125 -20.03125 13.785156 -19.632812 12.828125 -18.84375 C 11.867188 -18.0625 11.3125 -16.75 11.15625 -14.90625 Z M 23.34375 -14.90625 "/></g></g></g><g fill="#000000" fill-opacity="1"><g transform="translate(157.605884, 46.851049)"><g><path d="M 1.328125 -11.640625 L 1.328125 -11.6875 L 11.9375 -11.6875 L 11.9375 -11.640625 C 12.039062 -10.222656 12.453125 -9.132812 13.171875 -8.375 C 13.898438 -7.625 14.910156 -7.117188 16.203125 -6.859375 C 17.503906 -6.597656 19.03125 -6.46875 20.78125 -6.46875 C 23.632812 -6.46875 25.613281 -6.78125 26.71875 -7.40625 C 27.820312 -8.03125 28.375 -8.816406 28.375 -9.765625 C 28.375 -10.984375 27.847656 -11.851562 26.796875 -12.375 C 25.742188 -12.90625 23.953125 -13.351562 21.421875 -13.71875 L 14.65625 -14.65625 C 10.050781 -15.25 6.71875 -16.382812 4.65625 -18.0625 C 2.601562 -19.738281 1.578125 -22.070312 1.578125 -25.0625 C 1.578125 -27.070312 2.320312 -28.878906 3.8125 -30.484375 C 5.3125 -32.097656 7.421875 -33.375 10.140625 -34.3125 C 12.859375 -35.25 16.023438 -35.703125 19.640625 -35.671875 C 22.109375 -35.671875 24.425781 -35.429688 26.59375 -34.953125 C 28.769531 -34.484375 30.703125 -33.757812 32.390625 -32.78125 C 34.085938 -31.8125 35.425781 -30.578125 36.40625 -29.078125 C 37.394531 -27.585938 37.941406 -25.804688 38.046875 -23.734375 L 38.046875 -23.6875 L 27.390625 -23.6875 L 27.390625 -23.734375 C 27.359375 -25.078125 26.992188 -26.109375 26.296875 -26.828125 C 25.609375 -27.554688 24.660156 -28.050781 23.453125 -28.3125 C 22.253906 -28.582031 20.882812 -28.71875 19.34375 -28.71875 C 16.90625 -28.71875 15.085938 -28.421875 13.890625 -27.828125 C 12.691406 -27.234375 12.09375 -26.425781 12.09375 -25.40625 C 12.09375 -24.71875 12.320312 -24.144531 12.78125 -23.6875 C 13.238281 -23.226562 14.066406 -22.832031 15.265625 -22.5 C 16.472656 -22.164062 18.160156 -21.835938 20.328125 -21.515625 C 21.804688 -21.347656 23.1875 -21.179688 24.46875 -21.015625 C 25.757812 -20.859375 26.765625 -20.726562 27.484375 -20.625 C 35.117188 -19.632812 38.9375 -16.28125 38.9375 -10.5625 C 38.9375 -7.175781 37.394531 -4.476562 34.3125 -2.46875 C 31.238281 -0.457031 26.609375 0.546875 20.421875 0.546875 C 16.867188 0.546875 13.6875 0.148438 10.875 -0.640625 C 8.0625 -1.429688 5.816406 -2.710938 4.140625 -4.484375 C 2.460938 -6.265625 1.523438 -8.648438 1.328125 -11.640625 Z M 1.328125 -11.640625 "/></g></g></g><g fill="#000000" fill-opacity="1"><g transform="translate(198.362641, 46.851049)"><g><path d="M 1.234375 -12.1875 L 1.234375 -13.171875 C 1.234375 -15.929688 1.976562 -18.25 3.46875 -20.125 C 4.96875 -22 6.953125 -23.414062 9.421875 -24.375 C 11.890625 -25.332031 14.585938 -25.8125 17.515625 -25.8125 C 21.753906 -25.8125 25.25 -24.921875 28 -23.140625 C 30.75 -21.367188 32.335938 -18.523438 32.765625 -14.609375 L 32.765625 -14.5625 L 23.4375 -14.5625 L 23.4375 -14.609375 C 23.300781 -16.410156 22.722656 -17.648438 21.703125 -18.328125 C 20.691406 -19.003906 19.296875 -19.34375 17.515625 -19.34375 C 15.546875 -19.34375 14 -18.859375 12.875 -17.890625 C 11.757812 -16.921875 11.203125 -15.347656 11.203125 -13.171875 L 11.203125 -12.1875 C 11.203125 -9.976562 11.769531 -8.394531 12.90625 -7.4375 C 14.039062 -6.488281 15.578125 -6.015625 17.515625 -6.015625 C 19.222656 -6.015625 20.601562 -6.300781 21.65625 -6.875 C 22.707031 -7.457031 23.300781 -8.503906 23.4375 -10.015625 L 23.4375 -10.0625 L 32.8125 -10.0625 L 32.8125 -10.015625 C 32.613281 -7.679688 31.820312 -5.734375 30.4375 -4.171875 C 29.0625 -2.609375 27.253906 -1.4375 25.015625 -0.65625 C 22.773438 0.113281 20.273438 0.5 17.515625 0.5 C 14.523438 0.5 11.796875 0.0390625 9.328125 -0.875 C 6.859375 -1.800781 4.890625 -3.203125 3.421875 -5.078125 C 1.960938 -6.953125 1.234375 -9.320312 1.234375 -12.1875 Z M 1.234375 -12.1875 "/></g></g></g><g fill="#000000" fill-opacity="1"><g transform="translate(232.162098, 46.851049)"><g><path d="M 17.609375 -25.8125 C 22.285156 -25.8125 25.835938 -24.992188 28.265625 -23.359375 C 30.703125 -21.734375 31.921875 -19 31.921875 -15.15625 L 31.921875 0 L 22.453125 0 L 22.453125 -3.84375 C 21.828125 -2.789062 20.953125 -1.941406 19.828125 -1.296875 C 18.710938 -0.660156 17.472656 -0.210938 16.109375 0.046875 C 14.742188 0.304688 13.367188 0.4375 11.984375 0.4375 C 9.953125 0.4375 8.144531 0.132812 6.5625 -0.46875 C 4.976562 -1.070312 3.742188 -1.929688 2.859375 -3.046875 C 1.972656 -4.171875 1.53125 -5.488281 1.53125 -7 L 1.53125 -7.359375 C 1.53125 -9.523438 2.613281 -11.304688 4.78125 -12.703125 C 6.957031 -14.097656 10.234375 -14.796875 14.609375 -14.796875 L 22.296875 -14.796875 L 22.296875 -16.234375 C 22.296875 -18.441406 20.585938 -19.546875 17.171875 -19.546875 C 15.523438 -19.546875 14.25 -19.335938 13.34375 -18.921875 C 12.4375 -18.515625 11.882812 -17.785156 11.6875 -16.734375 L 2.421875 -16.734375 C 2.710938 -18.992188 3.566406 -20.78125 4.984375 -22.09375 C 6.398438 -23.414062 8.207031 -24.363281 10.40625 -24.9375 C 12.613281 -25.519531 15.015625 -25.8125 17.609375 -25.8125 Z M 16.28125 -5.03125 C 18.15625 -5.03125 19.648438 -5.429688 20.765625 -6.234375 C 21.890625 -7.046875 22.453125 -8.304688 22.453125 -10.015625 L 22.453125 -10.5625 L 15.390625 -10.5625 C 14.046875 -10.5625 13.050781 -10.3125 12.40625 -9.8125 C 11.769531 -9.320312 11.453125 -8.695312 11.453125 -7.9375 L 11.453125 -7.59375 C 11.453125 -6.675781 11.878906 -6.019531 12.734375 -5.625 C 13.585938 -5.226562 14.769531 -5.03125 16.28125 -5.03125 Z M 16.28125 -5.03125 "/></g></g></g><g fill="#000000" fill-opacity="1"><g transform="translate(266.45499, 46.851049)"><g><path d="M 21.3125 -25.703125 C 24.632812 -25.703125 27.203125 -24.765625 29.015625 -22.890625 C 30.828125 -21.015625 31.734375 -18.566406 31.734375 -15.546875 L 31.734375 0 L 21.953125 0 L 21.953125 -13.71875 C 21.953125 -15.851562 21.597656 -17.304688 20.890625 -18.078125 C 20.191406 -18.859375 19.066406 -19.25 17.515625 -19.25 C 15.742188 -19.25 14.453125 -18.671875 13.640625 -17.515625 C 12.835938 -16.367188 12.4375 -14.660156 12.4375 -12.390625 L 12.4375 0 L 2.671875 0 L 2.671875 -25.265625 L 12.09375 -25.265625 L 12.09375 -20.625 C 12.75 -22.101562 13.898438 -23.316406 15.546875 -24.265625 C 17.191406 -25.222656 19.113281 -25.703125 21.3125 -25.703125 Z M 21.3125 -25.703125 "/></g></g></g></g></g></svg>