<svg xmlns="http://www.w3.org/2000/svg" width="920" height="240" viewBox="0 0 920 240" fill="none" role="img" aria-labelledby="title desc">
  <title id="title">Atlas logo</title>
  <desc id="desc">A verdigris-toned wordmark paired with an atlas-style globe mark.</desc>
  <defs>
    <linearGradient id="panel" x1="46" y1="52" x2="176" y2="188" gradientUnits="userSpaceOnUse">
      <stop stop-color="#FFFFFF"/>
      <stop offset="1" stop-color="#EAF3F1"/>
    </linearGradient>
  </defs>
  <rect x="36" y="52" width="136" height="136" rx="38" fill="url(#panel)"/>
  <rect x="36.75" y="52.75" width="134.5" height="134.5" rx="37.25" stroke="#3F5F5A" stroke-opacity="0.18" stroke-width="1.5"/>
  <path d="M72 83C81.5 75.667 92.167 72 104 72C115.833 72 126.5 75.667 136 83" stroke="#3F5F5A" stroke-opacity="0.24" stroke-width="6.5" stroke-linecap="round"/>
  <circle cx="104" cy="119" r="31" stroke="#3F5F5A" stroke-width="6.5"/>
  <path d="M104 88V150" stroke="#3F5F5A" stroke-opacity="0.48" stroke-width="6.5" stroke-linecap="round"/>
  <path d="M80 119H128" stroke="#3F5F5A" stroke-opacity="0.48" stroke-width="6.5" stroke-linecap="round"/>
  <path d="M85 103C91 108.333 97.333 111 104 111C110.667 111 117 108.333 123 103" stroke="#3F5F5A" stroke-opacity="0.48" stroke-width="5.5" stroke-linecap="round"/>
  <path d="M85 135C91 129.667 97.333 127 104 127C110.667 127 117 129.667 123 135" stroke="#3F5F5A" stroke-opacity="0.48" stroke-width="5.5" stroke-linecap="round"/>
  <path d="M79 154C88 160 96.333 163 104 163C111.667 163 120 160 129 154" stroke="#3F5F5A" stroke-width="7.5" stroke-linecap="round"/>
  <text x="214" y="118" fill="#121212" font-family="'Iowan Old Style', 'Palatino Linotype', Georgia, serif" font-size="66" letter-spacing="-1.8">Atlas</text>
  <text x="218" y="155" fill="#3F5F5A" font-family="'Aptos', 'Segoe UI', 'Helvetica Neue', Arial, sans-serif" font-size="15" font-weight="700" letter-spacing="4.2">DASHBOARD AND PRACTICE OVERVIEW</text>
</svg>
