<svg xmlns="http://www.w3.org/2000/svg" width="920" height="240" viewBox="0 0 920 240" fill="none" role="img" aria-labelledby="title desc">
  <title id="title">Portrait logo</title>
  <desc id="desc">A merlot-toned wordmark paired with a cameo-inspired portrait mark.</desc>
  <defs>
    <linearGradient id="panel" x1="46" y1="52" x2="176" y2="188" gradientUnits="userSpaceOnUse">
      <stop stop-color="#FFFFFF"/>
      <stop offset="1" stop-color="#F6ECEF"/>
    </linearGradient>
  </defs>
  <rect x="36" y="52" width="136" height="136" rx="38" fill="url(#panel)"/>
  <rect x="36.75" y="52.75" width="134.5" height="134.5" rx="37.25" stroke="#7A495B" stroke-opacity="0.18" stroke-width="1.5"/>
  <path d="M72 83C81.5 75.667 92.167 72 104 72C115.833 72 126.5 75.667 136 83" stroke="#7A495B" stroke-opacity="0.24" stroke-width="6.5" stroke-linecap="round"/>
  <ellipse cx="104" cy="121" rx="29" ry="39" stroke="#7A495B" stroke-opacity="0.34" stroke-width="6.5"/>
  <circle cx="103" cy="108" r="10" fill="#7A495B" fill-opacity="0.18"/>
  <path d="M89 142C93.667 131.333 98.667 126 104 126C109.333 126 114.333 131.333 119 142" stroke="#7A495B" stroke-width="7.5" stroke-linecap="round"/>
  <path d="M79 154C88 160 96.333 163 104 163C111.667 163 120 160 129 154" stroke="#7A495B" stroke-width="7.5" stroke-linecap="round"/>
  <text x="214" y="118" fill="#121212" font-family="'Iowan Old Style', 'Palatino Linotype', Georgia, serif" font-size="66" letter-spacing="-1.8">Portrait</text>
  <text x="218" y="155" fill="#7A495B" font-family="'Aptos', 'Segoe UI', 'Helvetica Neue', Arial, sans-serif" font-size="15" font-weight="700" letter-spacing="4.2">PUBLIC PRACTICE PRESENCE</text>
</svg>
