<?xml version="1.0" encoding="UTF-8"?>
<svg xmlns="http://www.w3.org/2000/svg" width="1200" height="630" viewBox="0 0 1200 630" fill="none">
  <defs>
    <linearGradient id="bg" x1="80" y1="40" x2="1120" y2="590" gradientUnits="userSpaceOnUse">
      <stop stop-color="#FDFCFB"/>
      <stop offset="0.42" stop-color="#EDF4FB"/>
      <stop offset="1" stop-color="#F5F8FC"/>
    </linearGradient>
    <linearGradient id="panel" x1="50" y1="42" x2="210" y2="214" gradientUnits="userSpaceOnUse">
      <stop stop-color="#FFFFFF"/>
      <stop offset="1" stop-color="#E0F2FE"/>
    </linearGradient>
  </defs>
  <rect width="1200" height="630" fill="url(#bg)"/>
  <ellipse cx="920" cy="140" rx="300" ry="220" fill="#7DD3FC" opacity="0.14"/>
  <ellipse cx="180" cy="520" rx="260" ry="180" fill="#FDE8D8" opacity="0.2"/>
  <g transform="translate(88 168)">
    <rect width="220" height="220" rx="52" fill="url(#panel)"/>
    <rect x="1.5" y="1.5" width="217" height="217" rx="50.5" stroke="#0284C7" stroke-opacity="0.22" stroke-width="1.5"/>
    <g transform="translate(34 34) scale(0.596)">
      <path d="M92 90C103 81.333 115 77 128 77C141 77 153 81.333 164 90" stroke="#0284C7" stroke-opacity="0.38" stroke-width="9" stroke-linecap="round"/>
      <path d="M99 103L128 131L157 103" stroke="#0369A1" stroke-width="11" stroke-linecap="round" stroke-linejoin="round"/>
      <path d="M128 130V157" stroke="#0369A1" stroke-width="11" stroke-linecap="round"/>
      <path d="M96 171C106.333 181 117 186 128 186C139 186 149.667 181 160 171" stroke="#0284C7" stroke-opacity="0.92" stroke-width="10" stroke-linecap="round"/>
    </g>
  </g>
  <text x="340" y="262" font-family="system-ui, -apple-system, BlinkMacSystemFont, 'Segoe UI', sans-serif" font-size="72" font-weight="600" fill="#0C1929" letter-spacing="-2.5">Your Dentist</text>
  <text x="340" y="328" font-family="system-ui, -apple-system, BlinkMacSystemFont, 'Segoe UI', sans-serif" font-size="32" font-weight="500" fill="#0284C7" letter-spacing="-0.4">Neutral Practice Platform</text>
  <text x="340" y="396" font-family="system-ui, -apple-system, BlinkMacSystemFont, 'Segoe UI', sans-serif" font-size="22" font-weight="400" fill="#5A6F84">Ruhige Infrastruktur f&#252;r moderne Zahnarztpraxen</text>
</svg>
