<svg xmlns="http://www.w3.org/2000/svg" width="256" height="256" viewBox="0 0 256 256" fill="none" role="img" aria-labelledby="title desc">
  <title id="title">Settings mark</title>
  <desc id="desc">A quiet control-panel symbol inside a slate badge.</desc>
  <defs>
    <linearGradient id="panel" x1="50" y1="42" x2="210" y2="214" gradientUnits="userSpaceOnUse">
      <stop stop-color="#FFFFFF"/>
      <stop offset="1" stop-color="#EEF1F5"/>
    </linearGradient>
  </defs>
  <rect x="42" y="42" width="172" height="172" rx="48" fill="url(#panel)"/>
  <rect x="42.75" y="42.75" width="170.5" height="170.5" rx="47.25" stroke="#58606B" stroke-opacity="0.18" stroke-width="1.5"/>
  <path d="M92 91C103.333 83.667 115.333 80 128 80C140.667 80 152.667 83.667 164 91" stroke="#58606B" stroke-opacity="0.24" stroke-width="8" stroke-linecap="round"/>
  <rect x="95" y="107" width="66" height="54" rx="17" stroke="#58606B" stroke-width="8.5"/>
  <circle cx="128" cy="134" r="11" fill="#FFFFFF" stroke="#58606B" stroke-width="8.5"/>
  <path d="M109 134H117" stroke="#58606B" stroke-width="7" stroke-linecap="round"/>
  <path d="M139 134H147" stroke="#58606B" stroke-width="7" stroke-linecap="round"/>
  <path d="M104 173C112 168.333 120 166 128 166C136 166 144 168.333 152 173" stroke="#58606B" stroke-opacity="0.42" stroke-width="7" stroke-linecap="round"/>
  <path d="M96 181C106 186.333 116.667 189 128 189C139.333 189 150 186.333 160 181" stroke="#58606B" stroke-width="9.5" stroke-linecap="round"/>
</svg>
